<svg width="20" height="20" viewBox="0 0 20 20" fill="none" xmlns="http://www.w3.org/2000/svg">
<path d="M17.6334 5.52432L15.9484 2.85715C15.7984 2.61896 15.5308 2.47192 15.2455 2.47192H4.7533C4.46806 2.47192 4.20046 2.61896 4.05049 2.85715L2.36255 5.52432C1.49212 6.90054 2.26257 8.81491 3.88875 9.03546C4.00638 9.05016 4.12694 9.05898 4.24457 9.05898C5.01208 9.05898 5.69431 8.72375 6.16188 8.20619C6.62944 8.72375 7.31167 9.05898 8.07918 9.05898C8.84669 9.05898 9.52892 8.72375 9.99648 8.20619C10.464 8.72375 11.1463 9.05898 11.9138 9.05898C12.6842 9.05898 13.3635 8.72375 13.8311 8.20619C14.3016 8.72375 14.9809 9.05898 15.7484 9.05898C15.869 9.05898 15.9866 9.05016 16.1042 9.03546C17.7363 8.81785 18.5097 6.90349 17.6363 5.52432H17.6334ZM16.2248 9.96764H16.2218C16.066 9.98823 15.9072 9.99999 15.7455 9.99999C15.3808 9.99999 15.0309 9.94412 14.7045 9.84414V13.764H5.29438V9.8412C4.96503 9.94412 4.61215 9.99999 4.24751 9.99999C4.08578 9.99999 3.92404 9.98823 3.76819 9.96764H3.76524C3.64468 9.95 3.52705 9.92942 3.41237 9.90001V13.764V15.646C3.41237 16.6841 4.25633 17.5281 5.29438 17.5281H14.7045C15.7425 17.5281 16.5865 16.6841 16.5865 15.646V13.764V9.90001C16.4689 9.92942 16.3512 9.95294 16.2248 9.96764Z" fill="currentColor"/>
</svg>
