<svg width="32" height="32" viewBox="0 0 32 32" fill="none" xmlns="http://www.w3.org/2000/svg">
<rect width="32" height="32" rx="16" fill="#2D2D2D"/>
<path d="M11.2147 16.2809C11.2147 17.7536 10.0209 18.9474 8.54825 18.9474C7.07562 18.9474 5.88182 17.7536 5.88182 16.2809C5.88182 14.8083 7.07562 13.6145 8.54825 13.6145C10.0209 13.6145 11.2147 14.8083 11.2147 16.2809Z" fill="#3CBE14"/>
<path opacity="0.5" d="M12.5478 16.2809C12.5478 18.4898 10.7571 20.2805 8.54821 20.2805C6.33927 20.2805 4.54857 18.4898 4.54857 16.2809C4.54857 14.072 6.33927 12.2812 8.54821 12.2812C10.7571 12.2812 12.5478 14.072 12.5478 16.2809Z" fill="#3CBE14"/>
<path d="M19.9328 16.2808C19.9328 17.4098 19.0175 18.3251 17.8885 18.3251C16.7595 18.3251 15.8442 17.4098 15.8442 16.2808C15.8442 15.1518 16.7595 14.2366 17.8885 14.2366C19.0175 14.2366 19.9328 15.1518 19.9328 16.2808Z" fill="#3CBE14"/>
<path opacity="0.5" d="M20.955 16.281C20.955 17.9745 19.5822 19.3474 17.8886 19.3474C16.1951 19.3474 14.8223 17.9745 14.8223 16.281C14.8223 14.5875 16.1951 13.2146 17.8886 13.2146C19.5822 13.2146 20.955 14.5875 20.955 16.281Z" fill="#3CBE14"/>
<path d="M26.7844 16.281C26.7844 17.0664 26.1477 17.7031 25.3623 17.7031C24.5769 17.7031 23.9402 17.0664 23.9402 16.281C23.9402 15.4956 24.5769 14.8589 25.3623 14.8589C26.1477 14.8589 26.7844 15.4956 26.7844 16.281Z" fill="#3CBE14"/>
<path opacity="0.5" d="M27.4955 16.2808C27.4955 17.4589 26.5405 18.414 25.3624 18.414C24.1843 18.414 23.2292 17.4589 23.2292 16.2808C23.2292 15.1027 24.1843 14.1477 25.3624 14.1477C26.5405 14.1477 27.4955 15.1027 27.4955 16.2808Z" fill="#3CBE14"/>
</svg>
