<svg width="123" height="32" viewBox="0 0 123 32" fill="none" xmlns="http://www.w3.org/2000/svg">
<g clip-path="url(#clip0_560_1169)">
<path d="M16.0046 20.3508L18.6469 8.91375H22.287L17.7554 25.4806H14.6841L11.1203 14.1043L7.61861 25.4806H4.54661L0 8.91375H3.64016L6.32816 20.2287L9.7378 8.91375H12.5486L16.0046 20.3508ZM30.8434 25.7862C28.478 25.7862 26.558 25.0463 25.0834 23.5658C23.6193 22.0762 22.8872 20.0961 22.8872 17.6256V17.1665C22.8872 15.5129 23.2046 14.0383 23.8393 12.7413C24.4846 11.4352 25.3858 10.4191 26.543 9.69481C27.6996 8.96991 28.99 8.60747 30.4131 8.60747C32.6759 8.60747 34.4222 9.32714 35.6506 10.7665C36.8901 12.2058 37.5092 14.2421 37.5092 16.8752V18.376H26.6501C26.7624 19.7435 27.2183 20.8256 28.017 21.6217C28.8261 22.4184 29.8397 22.8161 31.0583 22.8161C32.7687 22.8161 34.161 22.1271 35.2359 20.7492L37.248 22.6627C36.5825 23.6533 35.6918 24.424 34.5757 24.9745C33.47 25.5165 32.226 25.7862 30.8434 25.7862ZM30.398 11.5933C29.374 11.5933 28.5447 11.9505 27.9099 12.6649C27.2849 13.3794 26.8859 14.3747 26.7115 15.6507H33.8233V15.3751C33.7411 14.1298 33.4087 13.1906 32.8242 12.5578C32.241 11.9146 31.4318 11.5933 30.398 11.5933ZM54.3745 17.3657C54.3745 19.9374 53.7966 21.9841 52.6393 23.5051C51.4926 25.0261 49.9102 25.7862 47.8929 25.7862C45.9474 25.7862 44.4317 25.0875 43.3469 23.6886L43.1621 25.4806H39.7832V1.96191H43.5154V10.5053C44.591 9.23963 46.0395 8.60681 47.8622 8.60681C49.89 8.60681 51.4821 9.35718 52.6393 10.8573C53.7966 12.358 54.3745 14.4556 54.3745 17.1502V17.3657ZM50.6423 17.0437C50.6423 15.2478 50.3249 13.8999 49.6901 13.0013C49.0553 12.1033 48.1339 11.6546 46.9257 11.6546C45.3074 11.6546 44.1711 12.3586 43.5154 13.7673V20.5957C44.1816 22.0351 45.3283 22.7547 46.9564 22.7547C48.1234 22.7547 49.0247 22.3211 49.6601 21.4532C50.2942 20.5859 50.622 19.2739 50.6423 17.5185V17.0437ZM65.2735 12.3129C64.7707 12.2302 64.262 12.1892 63.7525 12.1902C62.0428 12.1902 60.8908 12.8432 60.2971 14.15V25.4806H56.5649V8.91375H60.128L60.2201 10.7665C61.1213 9.32714 62.3706 8.60747 63.968 8.60747C64.5002 8.60747 64.9411 8.6793 65.2891 8.82167L65.2735 12.3129ZM70.9727 25.4806H67.2398V8.91375H70.9727V25.4806ZM67.01 4.61138C67.01 4.03996 67.1889 3.56518 67.5474 3.18771C67.9158 2.80959 68.4382 2.62085 69.1141 2.62085C69.79 2.62085 70.3118 2.81024 70.6808 3.18771C71.0491 3.56518 71.2333 4.03996 71.2333 4.61138C71.2333 5.17302 71.0491 5.64257 70.6808 6.02004C70.3118 6.38771 69.79 6.57122 69.1141 6.57122C68.4382 6.57122 67.9158 6.38771 67.5474 6.02004C67.1889 5.64257 67.01 5.17302 67.01 4.61138ZM73.7228 17.0744C73.7228 14.5229 74.3164 12.4762 75.5043 10.935C76.6922 9.3833 78.2844 8.60747 80.2808 8.60747C82.0421 8.60747 83.4658 9.22004 84.5512 10.4445V1.96322H88.2834V25.4813H84.9045L84.7197 23.7663C83.6036 25.1136 82.114 25.7869 80.2501 25.7869C78.3047 25.7869 76.7275 25.0065 75.5194 23.4444C74.3216 21.8829 73.7228 19.7591 73.7228 17.0744ZM77.455 17.3964C77.455 19.08 77.7776 20.3972 78.4222 21.3461C79.0779 22.2852 80.0046 22.7547 81.2023 22.7547C82.7285 22.7547 83.8446 22.0755 84.5512 20.7185V13.6452C83.8648 12.3182 82.7592 11.6546 81.2336 11.6546C80.0248 11.6546 79.0929 12.134 78.4379 13.094C77.7822 14.0429 77.455 15.4777 77.455 17.3964ZM90.5803 17.0744C90.5803 14.502 91.185 12.4507 92.3932 10.9193C93.6118 9.37808 95.2242 8.60747 97.231 8.60747C99.1256 8.60747 100.615 9.26575 101.701 10.583L101.87 8.91375H105.234V24.9751C105.234 27.1492 104.552 28.8641 103.191 30.1193C101.839 31.3751 100.011 32.0027 97.7071 32.0027C96.4892 32.0027 95.296 31.748 94.1283 31.2373C92.9718 30.7371 92.0908 30.0788 91.4867 29.2618L93.2532 27.0264C94.4 28.3848 95.8132 29.0633 97.4923 29.0633C98.7311 29.0633 99.7094 28.7263 100.426 28.0524C101.143 27.3889 101.501 26.4093 101.501 25.1129V23.9949C100.426 25.1893 98.9923 25.7862 97.2003 25.7862C95.2549 25.7862 93.6627 25.0156 92.4238 23.4744C91.1948 21.9332 90.5803 19.7996 90.5803 17.0744ZM94.2975 17.3964C94.2975 19.0597 94.6358 20.3717 95.311 21.3311C95.9974 22.28 96.9443 22.7547 98.1531 22.7547C99.6578 22.7547 100.775 22.1121 101.501 20.8256V13.5374C100.795 12.2822 99.6885 11.6546 98.1838 11.6546C96.9548 11.6546 95.9974 12.1392 95.311 13.109C94.6358 14.0788 94.2975 15.5077 94.2975 17.3964ZM115.457 25.7862C113.091 25.7862 111.171 25.0463 109.697 23.5658C108.233 22.0762 107.5 20.0961 107.5 17.6256V17.1665C107.5 15.5129 107.818 14.0383 108.453 12.7413C109.098 11.4352 109.998 10.4191 111.156 9.69481C112.313 8.96991 113.603 8.60747 115.026 8.60747C117.289 8.60747 119.035 9.32714 120.264 10.7665C121.503 12.2058 122.122 14.2421 122.122 16.8752V18.376H111.263C111.376 19.7435 111.832 20.8256 112.63 21.6217C113.439 22.4184 114.453 22.8161 115.672 22.8161C117.381 22.8161 118.774 22.1271 119.849 20.7492L121.861 22.6627C121.196 23.6533 120.305 24.424 119.189 24.9745C118.083 25.5165 116.839 25.7862 115.457 25.7862ZM115.011 11.5933C113.987 11.5933 113.158 11.9505 112.522 12.6649C111.898 13.3794 111.498 14.3747 111.325 15.6507H118.436V15.3751C118.354 14.1298 118.021 13.1906 117.438 12.5578C116.854 11.9146 116.045 11.5933 115.011 11.5933Z" fill="currentColor"/>
<path d="M72.0672 4.24607C72.0667 4.63274 71.9903 5.01552 71.8424 5.37255C71.6944 5.72957 71.4778 6.05386 71.2049 6.32688C70.9321 6.5999 70.6083 6.81631 70.252 6.96374C69.8958 7.11118 69.5141 7.18676 69.1288 7.18615C68.7434 7.18676 68.3617 7.11118 68.0054 6.96376C67.6492 6.81633 67.3253 6.59993 67.0524 6.32692C66.7795 6.05391 66.5628 5.72963 66.4148 5.3726C66.2668 5.01556 66.1903 4.63277 66.1897 4.24607C66.1911 3.46522 66.5015 2.71688 67.0527 2.16565C67.6038 1.61442 68.3506 1.30543 69.1288 1.30664C69.5141 1.30604 69.8957 1.3816 70.2519 1.52899C70.6081 1.67639 70.9318 1.89274 71.2047 2.16569C71.4776 2.43864 71.6942 2.76285 71.8422 3.1198C71.9902 3.47675 72.0666 3.85946 72.0672 4.24607Z" fill="#3CBE14"/>
</g>
<defs>
<clipPath id="clip0_560_1169">
<rect width="122.122" height="32" fill="white"/>
</clipPath>
</defs>
</svg>

